<svg xmlns:mydata="http://www.w3.org/2000/svg" mydata:contrastcolor="ffffff" mydata:template="Contrast" mydata:presentation="2.5" mydata:layouttype="undefined" mydata:specialfontid="undefined" mydata:id1="387" mydata:id2="138" mydata:companyname="NexaPulse" mydata:companytagline="" version="1.1" xmlns="http://www.w3.org/2000/svg" xmlns:xlink="http://www.w3.org/1999/xlink" viewBox="0 20 250 150"><g fill="#1e22aa" fill-rule="none" stroke="none" stroke-width="1" stroke-linecap="butt" stroke-linejoin="miter" stroke-miterlimit="10" stroke-dasharray="" stroke-dashoffset="0" font-family="none" font-weight="none" font-size="none" text-anchor="none" style="mix-blend-mode: normal"><g data-paper-data="{&quot;isGlobalGroup&quot;:true,&quot;bounds&quot;:{&quot;x&quot;:65,&quot;y&quot;:148.77015847248856,&quot;width&quot;:420,&quot;height&quot;:172.45968305502288}}"><g data-paper-data="{&quot;isPrimaryText&quot;:true}" fill-rule="nonzero"></g><g data-paper-data="{&quot;isIcon&quot;:&quot;true&quot;,&quot;iconType&quot;:&quot;icon&quot;,&quot;rawIconId&quot;:&quot;C-PHC3-tz1VT7sjm4uCPkZuWnwbC9eorYIaULE9d7D&quot;,&quot;source&quot;:&quot;ai&quot;,&quot;selectedEffects&quot;:{&quot;container&quot;:&quot;&quot;,&quot;transformation&quot;:&quot;&quot;,&quot;pattern&quot;:&quot;&quot;},&quot;isDetailed&quot;:false,&quot;iconStyle&quot;:&quot;standalone&quot;,&quot;bounds&quot;:{&quot;x&quot;:174.00948736231504,&quot;y&quot;:148.77015847248856,&quot;width&quot;:201.98102527536992,&quot;height&quot;:93.29138418502194},&quot;fillRule&quot;:&quot;evenodd&quot;,&quot;suitableAsStandaloneIcon&quot;:true}" fill-rule="evenodd"><path d="M87.10526,55.47098c2.19497,-3.18875 4.57021,-4.99073 8.06386,-6.11825c2.32909,-0.75168 6.06495,-0.73472 8.56921,0.03847c2.59972,0.80317 5.41719,2.72204 7.04843,4.80021c1.4549,1.85345 7.41097,12.38456 7.61808,13.47c0.08837,0.46093 -1.05053,2.89315 -3.5035,7.48348c-4.15836,7.78088 -4.31616,8.02982 -4.94735,7.78783c-0.25484,-0.0978 -1.66752,-2.40432 -3.13938,-5.12547c-3.18791,-5.89319 -7.04606,-12.72828 -7.37073,-13.05689c-0.12781,-0.12932 -1.02805,1.23355 -2.00048,3.02853c-4.83058,8.9175 -9.75821,17.68722 -10.85293,19.31475c-1.68883,2.51044 -4.79862,5.67744 -6.91075,7.03844c-0.97243,0.62606 -1.76891,1.22806 -1.77049,1.33694c-0.00158,0.10888 0.61975,0.56334 1.38073,1.00912c2.17169,1.27304 5.45822,4.56785 7.22674,7.24646c1.27422,1.92908 8.19207,14.00178 12.11807,21.14726c0.34242,0.6233 0.73889,1.09551 0.88091,1.04975c0.33769,-0.10927 5.51779,-9.36844 14.18285,-25.35099c3.83803,-7.0792 9.23393,-17.02795 11.99026,-22.10829c2.75673,-5.08038 6.63816,-12.23527 8.62523,-15.89977c4.13706,-7.62917 5.46572,-9.48624 8.06465,-11.27007c5.57617,-3.82806 13.33863,-3.24355 18.28559,1.37706c1.93776,1.81017 3.10112,3.56095 6.57464,9.89301c8.43784,15.38247 8.73292,15.84735 12.02971,18.93584c2.54527,2.38468 5.20337,3.98132 8.42166,5.05915l2.42298,0.81167l15.15174,0.16506l15.15213,0.16506l1.50223,0.77372c5.56631,2.86639 5.388,10.93656 -0.30928,14.01717c-1.1819,0.63868 -1.58389,0.6592 -16.35415,0.83593c-9.86077,0.11835 -15.58567,0.30218 -16.41293,0.52744c-4.0128,1.09472 -8.41693,3.77688 -11.15196,6.7924c-2.22535,2.45336 -4.01358,5.3813 -8.92307,14.60693c-4.75957,8.94476 -5.61404,10.33141 -7.57114,12.28849c-3.06444,3.06444 -6.47957,4.52011 -10.60597,4.52011c-4.16112,0 -7.65792,-1.5042 -10.57797,-4.5497c-1.30025,-1.35627 -4.32721,-6.334 -7.49579,-12.32715l-1.15705,-2.18866l0.7093,-1.29433c0.39016,-0.71206 2.08293,-3.88379 3.76111,-7.04843c2.98001,-5.61917 3.71337,-6.8141 4.18124,-6.8141c0.12624,0 1.07619,1.53301 2.11093,3.40685c1.03515,1.87424 3.37884,6.03931 5.2089,9.25642c2.94371,5.17655 3.37056,5.78644 3.70745,5.30003c0.48918,-0.70575 4.0341,-7.03581 7.51196,-13.41359c5.37932,-9.8663 7.43582,-12.59343 11.53501,-15.30124c1.26081,-0.83278 2.29517,-1.58232 2.29911,-1.66556c0.00395,-0.08324 -0.53059,-0.45801 -1.18664,-0.83278c-2.08963,-1.19295 -4.67633,-3.55439 -6.42276,-5.86258c-1.80678,-2.3878 -2.50858,-3.56682 -9.48996,-15.94289c-2.46677,-4.37229 -4.58797,-7.94988 -4.71421,-7.94988c-0.12663,0 -1.00675,1.46492 -1.95708,3.25568c-0.94954,1.79076 -3.32874,6.18575 -5.28662,9.767c-1.95787,3.58121 -4.89489,8.9644 -6.52651,11.96284c-1.63203,2.99816 -5.24401,9.6079 -8.02678,14.6882c-4.64241,8.47453 -8.34079,15.23971 -14.48543,26.49463c-4.5497,8.33408 -8.84141,11.35315 -15.61921,10.98745c-3.20487,-0.17278 -5.31344,-0.94364 -8.06662,-2.94884c-2.4719,-1.80007 -3.58911,-3.38515 -8.00981,-11.36499c-6.4626,-11.66519 -7.7384,-13.85542 -9.10334,-15.62907c-2.73542,-3.55518 -6.44051,-6.19356 -10.87778,-7.74628l-2.42282,-0.84776l-15.29406,-0.15424c-15.06387,-0.15149 -15.31281,-0.16372 -16.54876,-0.82489c-1.6239,-0.86829 -3.28322,-2.8226 -3.87742,-4.56667c-1.29863,-3.8116 0.21866,-7.67685 3.73355,-9.51322l1.61908,-0.84588l13.82094,-0.01061c14.5745,-0.0112 16.43341,-0.14627 20.16047,-1.4661c4.24831,-1.50424 8.1609,-4.7866 11.21389,-9.40718c1.05251,-1.59273 3.855,-6.50741 6.22788,-10.9215c2.37288,-4.41407 5.00968,-9.03621 5.86021,-10.27152z" data-paper-data="{&quot;isPathIcon&quot;:true}"></path></g></g></g></svg>